<?xml version="1.0" encoding="UTF-8"?>
<svg xmlns="http://www.w3.org/2000/svg" viewBox="0 0 16.89 19.85">
  <defs>
    <style>
      .cls-1 {
        fill: #fff;
        fill-rule: evenodd;
        stroke-width: 0px;
      }

      .cls-2 {
        fill: #000;
        stroke: #fff;
        stroke-width: 1.5px;
      }
    </style>
  </defs>
  <g id="Ebene_1" data-name="Ebene 1" focusable="false">
    <path class="cls-1" d="M8.18,6c1.19,0,2.16.97,2.16,2.16s-.97,2.16-2.16,2.16-2.16-.97-2.16-2.16.97-2.16,2.16-2.16Z"/>
    <path class="cls-2" d="M8.44.75C4.21.75.75,4.25.75,8.52c0,3.15,1.87,5.87,4.56,7.09,1.49.75,2.25,1.68,2.39,2.77,0,.2.07.38.21.52.14.14.33.21.53.21s.39-.07.53-.21c.14-.14.2-.32.21-.52.14-1.08.92-2.01,2.44-2.77,2.64-1.22,4.51-3.93,4.51-7.09,0-4.27-3.46-7.77-7.69-7.77Z"/>
    <path class="cls-1" d="M8.44,6.22c1.23,0,2.22,1,2.22,2.22s-1,2.22-2.22,2.22-2.22-1-2.22-2.22,1-2.22,2.22-2.22Z"/>
  </g>
</svg>