<?xml version="1.0" encoding="UTF-8"?>
<svg xmlns="http://www.w3.org/2000/svg" viewBox="0 0 20.3222644329 23.6670233881">
  <defs>
    <style>
      .cls-1 {
        stroke: #fff;
        stroke-width: 1.5px;
      }

      .cls-1, .cls-2 {
        fill: #eb0000;
      }

      .cls-2, .cls-3, .cls-4 {
        stroke-width: 0px;
      }

      .cls-3 {
        fill-rule: evenodd;
      }

      .cls-3, .cls-4 {
        fill: #fff;
      }
    </style>
  </defs>
  <g id="Ebene_1" data-name="Ebene 1" focusable="false">
    <path class="cls-3" d="M9.9309007408,6.0024747409c1.1931960522,0,2.1604782912.9672822389,2.1604782912,2.1604782912s-.9672822389,2.1604782912-2.1604782912,2.1604782912-2.1604782912-.9672822389-2.1604782912-2.1604782912.9672822389-2.1604782912,2.1604782912-2.1604782912Z"/>
    <path class="cls-1" d="M10.1933619976.75c-4.2349119175,0-7.69370488,3.499393452-7.69370488,7.7717545376,0,3.1546784332,1.8719840466,5.8731697252,4.5610878176,7.088923463,1.4884632569.7533524971,2.2477485266,1.6822709321,2.3912779169,2.7661373467.0042262783.1955134623.0723389485.378827577.2076371385.5155705941.1401178163.141564765.3305881744.2112714833.533702007.2112714833s.3935841907-.0697067183.5337020069-.2112714833c.13529819-.1367430171.2034108602-.3200571318.2076371385-.5155705941.1433815838-1.0817532754.9157183873-2.0114496398,2.437440248-2.7661005719,2.6429260581-1.2157155485,4.5149254865-3.9342818046,4.5149254865-7.0889602378,0-4.2723610856-3.4587929626-7.7717545376-7.69370488-7.7717545376Z"/>
    <path class="cls-3" d="M10.1933619976,6.2190191316c1.2286567578,0,2.2246857484.9960289906,2.2246857484,2.2246857484s-.9960289906,2.2246857484-2.2246857484,2.2246857484-2.2246857484-.9960289906-2.2246857484-2.2246857484.9960289906-2.2246857484,2.2246857484-2.2246857484Z"/>
    <g>
      <g>
        <path class="cls-2" d="M2.7651393414,23.3418254195c-.0825195312,0-.1596679688-.041015625-.2060546875-.1083984375-.0551757812-.080078125-.091796875-.17578125-.1088867188-.2841796875-.0112304688-.0751953125-.0244140625-.2490234375-.0375976562-.5185546875-.0200195312-.396484375-.1171875-.4892578125-.146484375-.5078125-.0234375-.015625-.1206054688-.064453125-.4135742188-.064453125h-.6508789062v1.2333984375c0,.1376953125-.1118164062.25-.25.25h-.4516601562c-.1381835938,0-.25-.1123046875-.25-.25v-3.421875c0-.1376953125.1118164062-.25.25-.25h1.5629882812c.337890625,0,.6015625.0615234375.8056640625.1875.171875.10546875.3056640625.2470703125.3974609375.421875.0893554688.16796875.1352539062.3603515625.1352539062.572265625,0,.2587890625-.0654296875.4833984375-.1938476562.6689453125-.0424804688.060546875-.0903320312.115234375-.1440429688.1650390625.0322265625.0341796875.0615234375.0712890625.0883789062.1123046875.0703125.1064453125.1142578125.208984375.134765625.3125.0146484375.0732421875.0380859375.279296875.0693359375.6171875.029296875.3271484375.0747070312.4033203125.0766601562.40625.064453125.07421875.0991210938.201171875.0581054688.2900390625-.0405273438.0888671875-.1098632812.16796875-.2080078125.16796875h-.517578125ZM1.8032252789,20.993192607c.154296875,0,.2744140625-.005859375.3598632812-.0205078125.0639648438-.009765625.1157226562-.02734375.1538085938-.0498046875.0654296875-.0380859375.1303710938-.1005859375.1303710938-.28125,0-.1435546875-.046875-.2041015625-.0815429688-.23828125-.029296875-.02734375-.0703125-.0478515625-.1235351562-.0625-.0473632812-.0126953125-.1416015625-.02734375-.3168945312-.02734375h-.7236328125v.6796875h.6015625Z"/>
        <path class="cls-4" d="M2.0629899502,19.6699480353c.2871103287,0,.5117201805.0498099327.6743202209.1503899097.1342697144.0820300579.2368097305.1904299259.3076100349.3252000809.0712900162.1337897778.106449604.2861299515.106449604.4560499191,0,.2080099583-.0497999191.382819891-.149409771.5263700485-.1001000404.1435499191-.2451200485.2470698357-.4355502129.3115198612.1655302048.0341801643.2910103798.1162099838.376950264.2460999489.0512700081.0781201124.083990097.1523401737.0981497765.2236300707.0141601562.0703099966.0356402397.2675800323.0654301643.5908200741.0263600349.2929699421.0712900162.4736299515.1332998276.5429699421l.0424799919.0488300323h-.5175800323c-.0341796875-.0498099923-.0566396713-.1103500128-.0678696632-.181640029-.0107402802-.0703199506-.0224599838-.2353500128-.0351600647-.4921900034-.0185499191-.3701199293-.1049799919-.6044899225-.259759903-.7050799131-.1074299812-.0703101158-.291020155-.1044900417-.5498101711-.1044900417h-.9008798599v1.4833999872h-.4516601562v-3.4218798876h1.5629899502M.9516601562,21.2431878386h.851569891c.1718699932,0,.3051700592-.0078098774.4003901482-.0234298706.0952100754-.0156300068.1757798195-.0429699421.2412099838-.0820300579.1684498787-.0986399651.2524399757-.2636799812.2524399757-.4960999489,0-.1777300835-.052740097-.3173799515-.1591801643-.4189400673-.0620098114-.0576200485-.139649868-.0986399651-.2314500809-.1230499744-.092279911-.0244100094-.2192399502-.0361299515-.3813397884-.0361299515h-.9736399651v1.1796798706M2.0629899502,19.1699480353H.5c-.2761399746,0-.5.223859787-.5.5v3.4218798876c0,.2761400044.2238600254.5.5.5h.4516601562c.2761399746,0,.5-.2238599956.5-.5v-.9833999872h.4008798599c.1420326233,0,.2205245495.0123448372.2586462498.0212414265.0155823231.0392570496.0424258709.1312587261.0515537262.3133585453.0139901638.2830700278.0284099579.4650599957.0402598381.5426499844.0232701302.14775002.0735702515.2778600156.1498703957.3890500367.0932497978.1358899921.247469902.2170999944.4122695923.2170999944h.5175800323c.1959300041,0,.3738002777-.114440009.4550204277-.2927400172.0812196732-.1782999933.0508098602-.3876099885-.0777902603-.5354299843l-.0100035667-.0114988089c-.0101480484-.0364810824-.0293946266-.1233045459-.0450162888-.2969412208-.041970253-.4553799629-.0600099564-.5789099932-.0732603073-.6447199583-.0237522125-.1195914745-.0727705956-.2409698963-.1457080841-.3604345322.0089039803-.0118663311.0176053047-.0238926411.0261282921-.0361154079.1589999199-.2291200161.239279747-.5021300316.239279747-.8123600483,0-.2529299259-.0555796623-.4854800701-.165189743-.6911799908-.1116800308-.2126202583-.2764000893-.3873500824-.4882001877-.5167398453-.242579937-.1500701904-.5491900444-.2237200737-.9349899292-.2237200737h0ZM1.4516601562,20.563507968h.4736399651c.166779995,0,.2361798286.0149300098.2534799576.0195000172.0130200386.0013298988.0184900761.0210199356.0184900761.058619976,0,.0523400307-.008660078.0714299679-.0087502003.0716099739-.0000123978-.000859499-.000603199-.0012397766-.0018420219-.0012397766-.0056507587,0-.0247871876.0079131126-.064057827.0143597126-.0758900642.0124499798-.1823101044.0168299675-.3193900585.0168299675h-.351569891v-.1796798706h0Z"/>
      </g>
      <g>
        <path class="cls-2" d="M4.8657252789,23.417020732c-.4833984375,0-.8579101562-.1767578125-1.1118164062-.5244140625-.2060546875-.2802734375-.310546875-.6376953125-.310546875-1.0625,0-.4580078125.1274414062-.841796875.37890625-1.1416015625.2700195312-.3173828125.6162109375-.4775390625,1.029296875-.4775390625.341796875,0,.6391601562.109375.8842773438.3251953125.1772460938.15625.306640625.3515625.3857421875.5810546875.0737304688.21484375.1098632812.486328125.1083984375.8076171875-.0004882812.0751953125-.0336914062.142578125-.0859375.1875.0004882812.0009765625.0014648438.001953125.0024414062.0029296875.0473632812.0595703125.0654296875.13671875.0493164062.2099609375-.1547851562.7138671875-.6147460938,1.091796875-1.330078125,1.091796875ZM4.3925807476,22.1738566695c.0766601562.33203125.283203125.384765625.5014648438.384765625.11328125,0,.19921875-.0234375.255859375-.0693359375.0629882812-.0517578125.1196289062-.1533203125.1635742188-.2919921875.0024414062-.0078125.0053710938-.015625.0087890625-.0234375h-.9296875ZM5.2460963726,21.323270732c-.0083007812-.017578125-.0170898438-.033203125-.0263671875-.048828125-.0874023438-.1416015625-.2045898438-.205078125-.3798828125-.205078125-.13671875,0-.2348632812.0361328125-.3095703125.1142578125-.0356445312.037109375-.0659179688.083984375-.0913085938.1396484375h.8071289062Z"/>
        <path class="cls-4" d="M4.8515651226,20.4609634219c.28125,0,.5205097198.0878899097.71875.2627000809.1450200081.1279299259.25.2861299515.3149399757.4746098518.0644497871.1884701252.0961899757.4306600094.0947299004.725579977h-1.8676800728c.0185599327.5898500681.2793002129.8847700357.7817401886.8847700357.1728496552,0,.3110399246-.0419899821.414059639-.1259800196.1030302048-.0849599838.1840901375-.2206999063.24366045-.4101499319h.3998999596c-.1294002533.5966799855-.4912099838.8945299983-1.085940361.8945299983-.4008798599,0-.7045898438-.1406300068-.9101600647-.4218800068-.1747999191-.2382799983-.2621998787-.5439400077-.2621998787-.9150400758,0-.3994100094.1069302559-.7265598774.3203101158-.9804699421.2202100754-.2587800026.4995098114-.3886699677.8378901482-.3886699677M4.1167051792,21.5732733546h1.4418897629c-.0141601562-.1738300323-.0561499596-.3173899651-.1264600754-.430670023-.1328201294-.2158198357-.3300800323-.3232400417-.5922899246-.3232400417-.204100132,0-.3676700592.0634801388-.4902300835.1914100647s-.2002000809.3154299259-.2329096794.5625M4.8515651226,19.9609634219c-.482940197,0-.9043502808.1952500343-1.2186803818.5646300316-.292309761.3478298187-.4395198822.7859299183-.4395198822,1.3045098782,0,.4786500931.1208000183.8860200644.3590502739,1.2107900381.2084898949.2852600217.6060900688.6261300184,1.3133096695.6261300184.8351802826,0,1.3943800926-.4576199986,1.5745797157-1.2885599472.0175962448-.0811328888.0145111084-.1642549038-.0075540543-.2421952486.0299606323-.0637568235.0468530655-.1348778009.0472240448-.2099348307.0017604828-.3543300629-.0380191803-.6454000473-.1216192245-.8898398876-.0935306549-.271490097-.2472600937-.5025200844-.4572701454-.6877901554-.2918000221-.2573099136-.6448802948-.3877398968-1.0495200157-.3877398968h0Z"/>
      </g>
      <g>
        <path class="cls-2" d="M6.6850612164,23.3418254195c-.1381835938,0-.25-.1123046875-.25-.25v-1.955078125h-.1665039062c-.1381835938,0-.25-.1123046875-.25-.25v-.3505859375c0-.06640625.0268554688-.130859375.07421875-.177734375.046875-.0458984375.1098632812-.072265625.17578125-.072265625.0009765625,0,.1713867188.001953125.1713867188.001953125.0078125-.1826171875.0244140625-.2666015625.0395507812-.3203125.0473632812-.181640625.1596679688-.333984375.3232421875-.435546875.150390625-.0927734375.333984375-.140625.544921875-.140625.0854492188,0,.1899414062.0068359375.3129882812.021484375.1264648438.013671875.2221679688.12109375.2221679688.248046875v.3671875c0,.0751953125-.0341796875.146484375-.0927734375.1943359375-.044921875.0361328125-.1005859375.0556640625-.1572265625.0556640625-.017578125,0-.0346679688-.001953125-.0522460938-.005859375-.0649414062-.013671875-.125-.0205078125-.1791992188-.0205078125-.0122070312-.009765625-.0219726562-.013671875-.0297851562-.013671875-.0146484375,0-.0229492188.015625-.0263671875.0478515625h.224609375c.1381835938,0,.25.1123046875.25.25v.3505859375c0,.1376953125-.1118164062.25-.25.25h-.2275390625v1.955078125c0,.1376953125-.1118164062.25-.25.25h-.4072265625Z"/>
        <path class="cls-4" d="M7.3476560116,19.6416277228c.0776405334,0,.1728506088.006840229.2851600647.0195298195v.3671901226c-.0825195312-.0175797939-.1596698761-.0263698101-.2314500809-.0263698101-.125,0-.2075195312.0234398842-.2480401993.0693399906-.0405292511.045899868-.0610399246.1386699677-.0610399246.2773399353v.1875h.4775400162v.3505899906h-.4775400162v2.2050799727h-.4072198868v-2.2050799727h-.4165096283v-.3505899906l.4165096283.0048899651c0-.2529299259.0117101669-.4218800068.035150528-.5058600903.0327196121-.125.1040096283-.2216799259.2143592834-.2900397778.1098604202-.0683600903.2475605011-.103520155.4130802155-.103520155M7.3476560116,19.1416277228c-.2585000992,0-.4863595963.0602202415-.677239418.1789999008-.21833992.1352500916-.3686704636.3387403488-.4339008331.5879502296-.0104856491.0374948978-.0192699432.0806598663-.0264434814.1310095787-.1100301743.0129606724-.21332407.0622186661-.2929859161.1409504414-.0950403214.093930006-.1485300064.2219898701-.1485300064.3556199074v.3505899906c0,.2476899624.1801161766.4533183575.4165096283.4930596352v1.7120203376c0,.2761400044.223859787.5000000224.5.5000000224h.4072198868c.276140213,0,.5-.223860018.5-.5000000224v-1.705575645c.265707016-.0117576122.4775400162-.2308981419.4775400162-.4995043278v-.3505899906c0-.0715463161-.0150299072-.139588356-.04210186-.2011311054.0674619675-.0868785381.1050920486-.1945521832.1050920486-.3066790104v-.3671901226c0-.2544198036-.1910495758-.468269825-.443860054-.4968400002-.1343994141-.0151796341-.2483901978-.0226898193-.3413000107-.0226898193h0Z"/>
      </g>
      <g>
        <path class="cls-2" d="M9.0512721539,23.417020732c-.4833984375,0-.8579101562-.1767578125-1.1118164062-.5244140625-.2060546875-.2802734375-.310546875-.6376953125-.310546875-1.0625,0-.4580078125.1274414062-.841796875.37890625-1.1416015625.2700195312-.3173828125.6162109375-.4775390625,1.029296875-.4775390625.341796875,0,.6391601562.109375.8842773438.3251953125.1772460938.15625.306640625.3515625.3857421875.5810546875.0737304688.21484375.1098632812.486328125.1083984375.8076171875-.0004882812.0751953125-.0336914062.142578125-.0859375.1875.0004882812.0009765625.0014648438.001953125.0024414062.0029296875.0473632812.0595703125.0654296875.13671875.0493164062.2099609375-.1547851562.7138671875-.6147460938,1.091796875-1.330078125,1.091796875ZM8.5781276226,22.1738566695c.0766601562.33203125.283203125.384765625.5014648438.384765625.11328125,0,.19921875-.0234375.255859375-.0693359375.0629882812-.0517578125.1196289062-.1533203125.1635742188-.2919921875.0024414062-.0078125.0053710938-.015625.0087890625-.0234375h-.9296875ZM9.4316432476,21.323270732c-.0083007812-.017578125-.0170898438-.033203125-.0263671875-.048828125-.0874023438-.1416015625-.2045898438-.205078125-.3798828125-.205078125-.13671875,0-.2348632812.0361328125-.3095703125.1142578125-.0356445312.037109375-.0659179688.083984375-.0913085938.1396484375h.8071289062Z"/>
        <path class="cls-4" d="M9.0371119976,20.4609634219c.28125,0,.5205097198.0878899097.71875.2627000809.1450195312.1279299259.25.2861299515.3149394989.4746098518.064450264.1884701252.0961904526.4306600094.0947303772.725579977h-1.8676795959c.0185594559.5898500681.279299736.8847700357.7817392349.8847700357.1728506088,0,.3110399246-.0419899821.4140605927-.1259800196.1030302048-.0849599838.1840896606-.2206999063.2436599731-.4101499319h.3998994827c-.1293992996.5966799855-.4912099838.8945299983-1.0859394073.8945299983-.4008798599,0-.7045898438-.1406300068-.9101600647-.4218800068-.1747999191-.2382799983-.2622003555-.5439400077-.2622003555-.9150400758,0-.3994100094.1069297791-.7265598774.320309639-.9804699421.2202100754-.2587800026.4995107651-.3886699677.837890625-.3886699677M8.3022515774,21.5732733546h1.4418907166c-.0141601562-.1738300323-.0561504364-.3173899651-.1264600754-.430670023-.1328201294-.2158198357-.3300800323-.3232400417-.5922899246-.3232400417-.2041006088,0-.3676700592.0634801388-.4902305603.1914100647-.1225595474.1279299259-.2002000809.3154299259-.2329101562.5625M9.0371119976,19.9609634219c-.4829397202,0-.9043502808.1952500343-1.2186803818.5646300316-.292309761.3478298187-.4395198822.7859299183-.4395198822,1.3045098782,0,.4786500931.1208000183.8860200644.3590497971,1.2107900381.2084903717.2852600217.6060905457.6261300184,1.3133106232.6261300184.8351793289,0,1.3943796158-.4576199986,1.5745792389-1.2885599472.0175962448-.0811328888.0145111084-.1642549038-.0075540543-.2421952486.0299606323-.0637568235.0468530655-.1348778009.0472240448-.2099348307.0017604828-.3543300629-.0380191803-.6454000473-.1216192245-.8898398876-.0935306549-.271490097-.2472600937-.5025200844-.4572706223-.6877901554-.2917995453-.2573099136-.6448793411-.3877398968-1.0495195389-.3877398968h0Z"/>
      </g>
      <g>
        <path class="cls-2" d="M10.7241237164,23.3418254195c-.1381835938,0-.25-.1123046875-.25-.25v-2.55078125c0-.1376953125.1118164062-.25.25-.25h.37890625c.0883789062,0,.1655273438.0458984375.2104492188.1142578125.189453125-.12890625.4189453125-.1953125.6826171875-.1953125.1376953125,0,.2890625.11328125.2890625.2509765625v.447265625c0,.0703125-.029296875.13671875-.0810546875.1845703125-.0458984375.0419921875-.1064453125.0654296875-.1689453125.0654296875-.0068359375,0-.12890625-.0068359375-.12890625-.0068359375-.150390625,0-.263671875.0458984375-.3564453125.1435546875-.0625.06640625-.1044921875.1435546875-.126953125.236328125-.0185546875.0791015625-.0419921875.2431640625-.0419921875.5751953125v.9853515625c0,.1376953125-.111328125.25-.2495117188.25h-.4072265625Z"/>
        <path class="cls-4" d="M11.996024847,20.4604050456c.0129461288-.0000004768.0259542465.0001871586.0391368866.0005631447v.447259903c-.0576200485-.0048799515-.1005907059-.006829977-.1289100647-.006829977-.21875,0-.398440361.0742199421-.5380802155.2216799259-.0927801132.0976500511-.1552801132.2138600349-.1879901886.3496100903-.0327196121.1357400417-.0488300323.3466799259-.0488300323.633789897v.9853500724h-.4072303772v-2.5507801175h.3789100647v.5244100094c.1710519791-.40275383.4686079025-.605035305.892993927-.605052948M11.9960210323,19.960408145h-.0000095367c-.2410469055.0000038147-.4607000351.048271656-.6539068222.1413938999-.0710220337-.038738966-.1524763107-.0607540607-.2390737534-.0607540607h-.3789100647c-.2761392593,0-.5.2238600254-.5.5v2.5507801175c0,.2761399746.2238607407.4999999776.5.4999999776h.4072303772c.276140213,0,.5-.2238600031.5-.4999999776v-.9853500724c0-.323499918.0218696594-.4625400305.034910202-.5166200399.0121898651-.0506198406.0320501328-.0883498192.0643901825-.1223800182.0377893448-.0399098396.0817899704-.066079855.1756000519-.066079855.0190591812,0,.0479393005.001760006.0867099762.0050499439.0140943527.0011937618.0281906128.0017852783.0422210693.0017852783.1247854233,0,.2456541061-.0467159748.3382883072-.1318352222.1030406952-.0946900845.161690712-.2282299995.161690712-.368170023v-.447259903c0-.2705302238-.2151708603-.492000103-.4855899811-.4997901917-.0048007965-.0001399517-.0487508774-.0007698536-.0535507202-.0007698536h0Z"/>
      </g>
      <g>
        <path class="cls-2" d="M13.4824244976,23.417020732c-.4833984375,0-.857421875-.1767578125-1.1123046875-.5244140625-.205078125-.2802734375-.3095703125-.6376953125-.3095703125-1.0625,0-.458984375.1279296875-.8427734375.37890625-1.1416015625.26953125-.3173828125.615234375-.4775390625,1.029296875-.4775390625.341796875,0,.6396484375.109375.8837890625.3251953125.1787109375.1572265625.3076171875.3525390625.3857421875.5810546875.0732421875.21484375.109375.478515625.109375.806640625,0,.0751953125-.033203125.1435546875-.0869140625.189453125.0009765625.0009765625.001953125.0009765625.001953125.001953125.0478515625.05859375.06640625.1357421875.0498046875.2099609375-.154296875.7138671875-.6142578125,1.091796875-1.330078125,1.091796875ZM13.0097682476,22.1738566695c.076171875.33203125.283203125.384765625.5009765625.384765625.11328125,0,.2001953125-.0234375.2578125-.0703125.0615234375-.05078125.1181640625-.15234375.16015625-.2900390625.0029296875-.0078125.005859375-.0166015625.009765625-.0244140625h-.9287109375ZM13.8623073101,21.323270732c-.0078125-.017578125-.0166015625-.033203125-.0263671875-.048828125-.0869140625-.1416015625-.2041015625-.205078125-.37890625-.205078125-.13671875,0-.2353515625.0361328125-.3095703125.1142578125-.03515625.037109375-.06640625.083984375-.091796875.1396484375h.806640625Z"/>
        <path class="cls-4" d="M13.46875453,20.4609634219c.28125,0,.5205097198.0878899097.71875.2627000809.1445293427.1279299259.25.2861299515.3144493103.4746098518.0644512177.1884701252.0957012177.4306600094.0957012177.725579977h-1.8681612015c.0185604095.5898500681.2793006897.8847700357.78125.8847700357.1728506088,0,.3115205765-.0419899821.4150400162-.1259800196.1025400162-.0849599838.1835899353-.2206999063.242190361-.4101499319h.4003896713c-.1289100647.5966799855-.490240097.8945299983-1.0859394073.8945299983-.400390625,0-.7041006088-.1406300068-.9101600647-.4218800068-.1747999191-.2382799983-.2617101669-.5439400077-.2617101669-.9150400758,0-.3994100094.1064395905-.7265598774.320309639-.9804699421.2197198868-.2587800026.4990205765-.3886699677.837890625-.3886699677M12.7334039211,21.5732733546h1.4423799515c-.0136699677-.1738300323-.0566396713-.3173899651-.1269493103-.430670023-.1328201294-.2158198357-.3300800323-.3232400417-.5918006897-.3232400417-.2040996552,0-.3681592941.0634801388-.4902296066.1914100647-.123049736.1279299259-.2002000809.3154299259-.2334003448.5625M13.46875453,19.9609634219c-.4836406708,0-.9051704407.195389986-1.219039917.5650498867-.2918300629.3464701176-.439160347.7847201824-.439160347,1.304090023,0,.4791001081.120639801.8864700794.3585596085,1.2107900381.2091703415.2855000198.607000351.6261300184,1.3133106232.6261300184.8358592987,0,1.3950901031-.4577600099,1.5746593475-1.2889399864.017408371-.0805698633.0144271851-.1630825996-.0072727203-.2405251265.0306758881-.0647953749.0478439331-.1372539997.0478439331-.2137049437,0-.3558599949-.0401000977-.646119833-.1226005554-.8873598576-.0922298431-.2697300911-.2457008362-.500950098-.4561500549-.6872301102-.2924308777-.2578699589-.6455106735-.388299942-1.0501499176-.388299942h0Z"/>
      </g>
      <g>
        <path class="cls-2" d="M16.8154323101,23.3418254195c-.1376953125,0-.25-.1123046875-.25-.25v-1.5c0-.1513671875-.0029296875-.26171875-.013671875-.328125,0-.0009765625-.03125-.0966796875-.03125-.09765625-.0166015625-.0263671875-.060546875-.0947265625-.2431640625-.0947265625-.13671875,0-.2392578125.0419921875-.3212890625.1318359375-.0458984375.0498046875-.0791015625.1142578125-.0966796875.189453125-.0244140625.099609375-.0361328125.2568359375-.0361328125.470703125v1.228515625c0,.1376953125-.1123046875.25-.25.25h-.4072265625c-.1376953125,0-.25-.1123046875-.25-.25v-2.55078125c0-.1376953125.1123046875-.25.25-.25h.37890625c.0791015625,0,.150390625.037109375.1962890625.0947265625.1923828125-.1162109375.4150390625-.1748046875.6650390625-.1748046875.28125,0,.521484375.078125.7119140625.2333984375.138671875.115234375.2333984375.25390625.2861328125.4140625.0458984375.142578125.068359375.3330078125.068359375.5830078125v1.650390625c0,.1376953125-.1123046875.25-.25.25h-.4072265625Z"/>
        <path class="cls-4" d="M16.4062488079,20.4609658061c.224609375,0,.4091796875.0595698357.5546894073.177729845.0996112823.0830101967.1679706573.1816501617.2060604095.2978601456.037109375.115229845.0556602478.2841799259.0556602478.5048799515v1.6503899693h-.4072303772v-1.5000000596c0-.1699199677-.0048789978-.2929699421-.0165996552-.3671898842-.0107402802-.0751900673-.0332012177-.1396501064-.0673809052-.1923799515-.0888690948-.1406300068-.240228653-.2109401226-.4540996552-.2109401226-.2080097198,0-.3759803772.0712900162-.505859375.2128901482-.0742206573.0810599327-.1269512177.1816399097-.1552696228.3007798195-.0293006897.1201200485-.0429706573.2959001064-.0429706573.5283200741v1.2285199761h-.4072303772v-2.5507798791h.3789100647v.3906199932c.0751895905-.1093699932.1425704956-.1904301643.2031211853-.2431600094.1767597198-.1513700485.3955097198-.2275400162.6581993103-.2275400162M16.4062488079,19.9609658061c-.234287262,0-.4490470886.0437619686-.642168045.1305418015-.0661773682-.0323233604-.1405448914-.0504617691-.2191524506-.0504617691h-.3789100647c-.276140213,0-.5.223859787-.5.5v2.5507798791c0,.2761400044.223859787.5000000149.5.5000000149h.4072303772c.276140213,0,.5-.2238600105.5-.5000000149v-1.2285199761c0-.2541201115.017999649-.3658499718.0287303925-.4098300934.0088291168-.0371198654.0211296082-.0628798008.0382804871-.081619978.0242881775-.0264799595.0532989502-.0505399704.1370887756-.0505399704.0115242004,0,.0213069916.0004172325.0295028687.0010442734.0076904297.0702476501.0085773468.15680933.0085773468.2694656849v1.5000000596c0,.2761400044.223859787.5000000149.5.5000000149h.4072303772c.276140213,0,.5-.2238600105.5-.5000000149v-1.6503899693c0-.2762799263-.0260810852-.4915599823-.0797309875-.6581499577-.0682201385-.208160162-.1897087097-.3852100372-.3618888855-.5287001133-.2415409088-.1961898804-.5342102051-.2936198711-.8747901917-.2936198711h0Z"/>
      </g>
      <g>
        <path class="cls-2" d="M17.7275416851,23.3418254195c-.1376953125,0-.25-.1123046875-.25-.25v-.31640625c0-.0556640625.0185546875-.1103515625.052734375-.154296875l1.166015625-1.48828125h-.8720703125c-.1376953125,0-.25-.1123046875-.25-.25v-.3466796875c0-.1376953125.1123046875-.25.25-.25h1.9375c.1376953125,0,.25.1123046875.25.25v.2783203125c0,.0556640625-.0185546875.1103515625-.052734375.154296875l-1.19140625,1.5224609375h1.0546875c.1376953125,0,.25.1123046875.25.25v.3505859375c0,.1376953125-.1123046875.25-.25.25h-2.0947265625Z"/>
        <path class="cls-4" d="M19.7617251873,20.5361635027v.2783198357l-1.5068397522,1.9267600775h1.5673789978v.350579977h-2.0947189331v-.3163999915l1.4824199677-1.8925799727h-1.3857402802v-.3466799259h1.9375M19.7617251873,20.0361635027h-1.9375c-.276140213,0-.5.223859787-.5.5v.3466799259c0,.2761399746.223859787.5.5.5h.3589782715l-.8492794037,1.0842599869c-.0689296722.0879999399-.1063785553.1965500116-.1063785553.3083199859v.3163999915c0,.2761400044.223859787.4999999925.5.4999999925h2.0947189331c.276140213,0,.5-.2238599882.5-.4999999925v-.350579977c0-.2761399746-.223859787-.5-.5-.5h-.5415992737l.8749198914-1.1187399626c.068769455-.0879399776.1061401367-.1963801384.1061401367-.3080201149v-.2783198357c0-.276140213-.223859787-.5-.5-.5h0Z"/>
      </g>
    </g>
  </g>
</svg>