<?xml version="1.0" encoding="UTF-8"?>
<svg xmlns="http://www.w3.org/2000/svg" version="1.1" viewBox="0 0 24 24">
  <defs>
    <style>
      .cls-1 {
        font-family: ArialMT, Arial;
        font-size: 9.8px;
        letter-spacing: -.1em;
      }

      .cls-1, .cls-2 {
        fill: #000;
      }

      .cls-2 {
        fill-rule: evenodd;
        stroke-width: 0px;
      }
    </style>
  </defs>
  <g id="Ebene_1" data-name="Ebene 1" focusable="false">
    <path class="cls-2" d="M12,4c-3.3,0-6,2.7-6,6h0c0,1.1.3,1.9.8,2.7h0s4.8,7.5,4.8,7.5l.4.7.4-.7,4.8-7.5h0s0,0,0,0c.5-.8.8-1.7.8-2.7h0c0-3.3-2.7-6-6-6ZM7.7,12.2c-.4-.7-.7-1.4-.7-2.2,0-2.8,2.2-5,5-5,2.8,0,5,2.2,5,5,0,.8-.3,1.5-.7,2.2l-4.3,6.8s-4.3-6.8-4.3-6.8Z"/>
    <text/>
    <text class="cls-1" transform="translate(9 13.6) scale(.8 1)"><tspan x="0" y="0">R</tspan></text>
  </g>
</svg>